<?xml version="1.0" encoding="UTF-8"?>
<svg width="24px" height="24px" viewBox="0 0 24 24" version="1.1" xmlns="http://www.w3.org/2000/svg" xmlns:xlink="http://www.w3.org/1999/xlink">
    <!-- Generator: Sketch 44.1 (41455) - http://www.bohemiancoding.com/sketch -->
    <title>clock</title>
    <desc>Created with Sketch.</desc>
    <defs></defs>
    <g id="Symbols" stroke="none" stroke-width="1" fill="none" fill-rule="evenodd">
        <g id="clock">
            <g>
                <rect id="Rectangle-path" x="0" y="0" width="24" height="24"></rect>
                <g id="Group" transform="translate(3.000000, 3.000000)" fill-rule="nonzero" fill="#E76B71">
                    <path d="M9,18 C4.038,18 0,13.963 0,9 C0,4.037 4.038,0 9,0 C13.962,0 18,4.037 18,9 C18,13.963 13.962,18 9,18 Z M9,2 C5.14,2 2,5.14 2,9 C2,12.86 5.14,16 9,16 C12.86,16 16,12.86 16,9 C16,5.14 12.86,2 9,2 Z" id="Shape"></path>
                    <path d="M11.293,12.707 L8.293,9.707 C8.105,9.519 8,9.265 8,9 L8,4 L10,4 L10,8.586 L12.707,11.293 L11.293,12.707 Z" id="Shape"></path>
                </g>
            </g>
        </g>
    </g>
</svg>