<?xml version="1.0" encoding="UTF-8"?>
<svg width="24px" height="24px" viewBox="0 0 24 24" version="1.1" xmlns="http://www.w3.org/2000/svg" xmlns:xlink="http://www.w3.org/1999/xlink">
    <!-- Generator: Sketch 44.1 (41455) - http://www.bohemiancoding.com/sketch -->
    <title>contact</title>
    <desc>Created with Sketch.</desc>
    <defs></defs>
    <g id="Symbols" stroke="none" stroke-width="1" fill="none" fill-rule="evenodd">
        <g id="contact">
            <g>
                <rect id="Rectangle-path" x="0" y="0" width="24" height="24"></rect>
                <g id="Group-16" transform="translate(3.000000, 2.000000)" fill-rule="nonzero" fill="#E76B71">
                    <path d="M7.001,14 C7.001,12.159 8.16,11 10.001,11 L10.001,11 C11.842,11 13.001,12.159 13.001,14 L7.001,14 Z" id="Shape"></path>
                    <circle id="Oval" cx="10.001" cy="8" r="2"></circle>
                    <path d="M16.001,0 L4.001,0 C2.898,0 2.001,0.896 2.001,2 L2.001,4 L0.001,4 L0.001,6 L2.001,6 L2.001,9 L0.001,9 L0.001,11 L2.001,11 L2.001,14 L0.001,14 L0.001,16 L2.001,16 L2.001,18 C2.001,19.103 2.898,20 4.001,20 L16.001,20 C17.104,20 18.001,19.103 18.001,18 L18.001,2 C18.001,0.896 17.104,0 16.001,0 Z M4.001,18 L4.001,16 L5.001,16 L5.001,14 L4.001,14 L4.001,11 L5.001,11 L5.001,9 L4.001,9 L4.001,6 L5.001,6 L5.001,4 L4.001,4 L4.001,2 L16.001,2 L16.002,18 L4.001,18 Z" id="Shape"></path>
                </g>
            </g>
        </g>
    </g>
</svg>