<?xml version="1.0" encoding="UTF-8"?>
<svg width="24px" height="24px" viewBox="0 0 24 24" version="1.1" xmlns="http://www.w3.org/2000/svg" xmlns:xlink="http://www.w3.org/1999/xlink">
    <!-- Generator: Sketch 44.1 (41455) - http://www.bohemiancoding.com/sketch -->
    <title>date</title>
    <desc>Created with Sketch.</desc>
    <defs></defs>
    <g id="Symbols" stroke="none" stroke-width="1" fill="none" fill-rule="evenodd">
        <g id="date">
            <g>
                <rect id="Rectangle-path" x="0" y="0" width="24" height="24"></rect>
                <g id="Group-14" transform="translate(1.000000, 1.000000)" fill-rule="nonzero" fill="#E76B71">
                    <path d="M20,2 L17,2 L17,0 L15,0 L15,6 L17,6 L17,4 L20,4 L20,19 L2,19 L2,4 L4,4 L4,2 L2,2 C0.896,2 0,2.895 0,4 L0,19 C0,20.104 0.896,21 2,21 L20,21 C21.104,21 22,20.104 22,19 L22,4 C22,2.895 21.104,2 20,2 Z" id="Shape"></path>
                    <polygon id="Shape" points="7 4 14 4 14 2 7 2 7 0 5 0 5 6 7 6"></polygon>
                    <rect id="Rectangle-path" x="4" y="8" width="4" height="4"></rect>
                    <rect id="Rectangle-path" x="9" y="8" width="4" height="4"></rect>
                    <rect id="Rectangle-path" x="14" y="8" width="4" height="4"></rect>
                    <rect id="Rectangle-path" x="4" y="13" width="4" height="4"></rect>
                    <rect id="Rectangle-path" x="9" y="13" width="4" height="4"></rect>
                </g>
            </g>
        </g>
    </g>
</svg>