<?xml version="1.0" encoding="UTF-8"?>
<svg width="24px" height="24px" viewBox="0 0 24 24" version="1.1" xmlns="http://www.w3.org/2000/svg" xmlns:xlink="http://www.w3.org/1999/xlink">
    <!-- Generator: Sketch 44.1 (41455) - http://www.bohemiancoding.com/sketch -->
    <title>location</title>
    <desc>Created with Sketch.</desc>
    <defs></defs>
    <g id="Symbols" stroke="none" stroke-width="1" fill="none" fill-rule="evenodd">
        <g id="location">
            <g>
                <rect id="Rectangle-path" x="0" y="0" width="23.999" height="24"></rect>
                <g id="Group" transform="translate(4.800000, 1.843200)" fill-rule="nonzero" fill="#E76B71">
                    <path d="M6.72,9.216 C5.13216,9.216 3.84,7.9755264 3.84,6.4512 C3.84,4.9268736 5.13216,3.6864 6.72,3.6864 C8.30784,3.6864 9.6,4.9268736 9.6,6.4512 C9.6,7.9755264 8.30784,9.216 6.72,9.216 Z M6.72,5.5296 C6.19104,5.5296 5.76,5.9433984 5.76,6.4512 C5.76,6.9599232 6.19104,7.3728 6.72,7.3728 C7.24896,7.3728 7.68,6.9599232 7.68,6.4512 C7.68,5.9433984 7.24896,5.5296 6.72,5.5296 Z" id="Shape"></path>
                    <path d="M6.72,19.0467072 C4.45536,16.146432 0,10.0786176 0,6.4512 C0,2.893824 3.0144,0 6.72,0 C10.4256,0 13.44,2.893824 13.44,6.4512 C13.44,10.0786176 8.98464,16.1473536 6.72,19.0467072 Z M6.72,1.8432 C4.07328,1.8432 1.92,3.9103488 1.92,6.4512 C1.92,8.8390656 4.90272,13.4396928 6.72,15.9353856 C8.53632,13.4387712 11.52,8.8372224 11.52,6.4512 C11.52,3.9103488 9.36672,1.8432 6.72,1.8432 Z" id="Shape"></path>
                </g>
            </g>
        </g>
    </g>
</svg>