<?xml version="1.0" encoding="UTF-8" standalone="no"?>
<!DOCTYPE svg PUBLIC "-//W3C//DTD SVG 1.1//EN"
"http://www.w3.org/Graphics/SVG/1.1/DTD/svg11.dtd">

<svg x="0" y="0" width="76" height="75" viewBox="1024 82 104 103" version="1.1" xmlns="http://www.w3.org/2000/svg" xmlns:xlink="http://www.w3.org/1999/xlink">
<defs>
<style type="text/css"><![CDATA[

.g1_1{
fill: #FFFFFF;
}
.g2_1{
fill: #061456;
}
]]></style>
</defs>

<path d="M1076.6,96.7c3.7,3.6,7.9,7.4,11.4,11.1l-4.1,5.4l0,0.3l11,4.9l7.5,-5.1l-4.5,-5l0,-0.4c4.7,-3.3,8.7,-6.5,13.2,-9.5l-2.2,22.6l-64.8,0l-2.2,-22.6c4.5,3,8.5,6.2,13.2,9.5l0,0.4l-4.5,5l7.4,5.1l11.1,-4.9l0,-0.3l-4.1,-5.4c3.5,-3.7,7.7,-7.5,11.4,-11.1Z" class="g2_1" id="crown" />
<path d="M1108.4,125l-0.7,7.5l-23.9,0l0,26l11.6,-0.1c2.6,0,5.4,-2.8,4.8,-4.6c-0.6,-2.6,-2.9,-4.3,-5.1,-5.6c0.4,0,8.4,-5.9,12.2,-8.5c-0.2,1.7,-2.9,22.9,-2.9,23.2l-27.7,10.5l-0.4,0l-27.7,-10.5c0,-0.3,-2.7,-21.5,-2.9,-23.2c3.8,2.6,11.8,8.5,12.2,8.5c-2.2,1.3,-4.5,3,-5.1,5.6c-0.6,1.8,2.2,4.6,4.8,4.6l11.6,0.1l0,-26l-23.9,0l-0.7,-7.5Z" class="g2_1" id="anchor" />

</svg>