<?xml version="1.0" encoding="UTF-8"?>
<svg width="24px" height="24px" viewBox="0 0 24 24" version="1.1" xmlns="http://www.w3.org/2000/svg" xmlns:xlink="http://www.w3.org/1999/xlink">
    <!-- Generator: Sketch 44.1 (41455) - http://www.bohemiancoding.com/sketch -->
    <title>ship</title>
    <desc>Created with Sketch.</desc>
    <defs></defs>
    <g id="Symbols" stroke="none" stroke-width="1" fill="none" fill-rule="evenodd">
        <g id="ship">
            <g>
                <rect id="Rectangle-path" x="0" y="0" width="24" height="24"></rect>
                <g id="Group-15" transform="translate(1.000000, 0.000000)" fill-rule="nonzero" fill="#E76B71">
                    <path d="M20.2752,14.4 L18.432,14.4 C18.432,15.45984 17.6053248,16.32 16.5888,16.32 C15.5722752,16.32 14.7456,15.45984 14.7456,14.4 L12.9024,14.4 C12.9024,15.45984 12.0757248,16.32 11.0592,16.32 C10.0426752,16.32 9.216,15.45984 9.216,14.4 L7.3728,14.4 C7.3728,15.45984 6.5461248,16.32 5.5296,16.32 C4.5130752,16.32 3.6864,15.45984 3.6864,14.4 L1.8432,14.4 C1.8432,15.45984 1.0165248,16.32 0,16.32 L0,18.24 C1.10592,18.24 2.0883456,17.71872 2.7648,16.91232 C3.4412544,17.71872 4.42368,18.24 5.5296,18.24 C6.63552,18.24 7.6179456,17.71872 8.2944,16.91232 C8.9708544,17.71872 9.95328,18.24 11.0592,18.24 C12.16512,18.24 13.1475456,17.71872 13.824,16.91232 C14.5004544,17.71872 15.48288,18.24 16.5888,18.24 C17.69472,18.24 18.6771456,17.71872 19.3536,16.91232 C20.0300544,17.71872 21.01248,18.24 22.1184,18.24 L22.1184,16.32 C21.1018752,16.32 20.2752,15.45984 20.2752,14.4 Z" id="Shape"></path>
                    <path d="M20.2752,19.2 L18.432,19.2 C18.432,20.25984 17.6053248,21.12 16.5888,21.12 C15.5722752,21.12 14.7456,20.25984 14.7456,19.2 L12.9024,19.2 C12.9024,20.25984 12.0757248,21.12 11.0592,21.12 C10.0426752,21.12 9.216,20.25984 9.216,19.2 L7.3728,19.2 C7.3728,20.25984 6.5461248,21.12 5.5296,21.12 C4.5130752,21.12 3.6864,20.25984 3.6864,19.2 L1.8432,19.2 C1.8432,20.25984 1.0165248,21.12 0,21.12 L0,23.04 C1.10592,23.04 2.0883456,22.51872 2.7648,21.71232 C3.4412544,22.51872 4.42368,23.04 5.5296,23.04 C6.63552,23.04 7.6179456,22.51872 8.2944,21.71232 C8.9708544,22.51872 9.95328,23.04 11.0592,23.04 C12.16512,23.04 13.1475456,22.51872 13.824,21.71232 C14.5004544,22.51872 15.48288,23.04 16.5888,23.04 C17.69472,23.04 18.6771456,22.51872 19.3536,21.71232 C20.0300544,22.51872 21.01248,23.04 22.1184,23.04 L22.1184,21.12 C21.1018752,21.12 20.2752,20.25984 20.2752,19.2 Z" id="Shape"></path>
                    <path d="M4.6577664,15.1152 L6.35904,14.37888 L4.8190464,10.51584 L11.0527488,7.76352 L17.2855296,10.51584 L15.7694976,14.29824 L17.4707712,15.03648 L19.3388544,10.37376 C19.5342336,9.88608 19.3148928,9.32736 18.8476416,9.12 L15.6607488,7.71264 L15.6607488,3.84 C15.6607488,3.30912 15.247872,2.88 14.7391488,2.88 L11.9743488,2.88 L11.9743488,0 L10.1311488,0 L10.1311488,2.88 L7.3663488,2.88 C6.8576256,2.88 6.4447488,3.30912 6.4447488,3.84 L6.4447488,7.71168 L3.257856,9.11904 C2.7915264,9.32544 2.5721856,9.88416 2.7666432,10.37184 L4.6577664,15.1152 Z M8.2879488,4.8 L13.8175488,4.8 L13.8175488,6.89856 L11.4121728,5.8368 C11.1826944,5.736 10.9228032,5.736 10.6933248,5.8368 L8.2879488,6.89856 L8.2879488,4.8 L8.2879488,4.8 Z" id="Shape"></path>
                </g>
            </g>
        </g>
    </g>
</svg>